<?xml version="1.0" encoding="UTF-8"?>
<!--
  Monochrome mask icon for macOS Safari pinned tabs.
  Safari fills with the color from <link rel="mask-icon" color="…"> — shape only.
  Drawn to match the tree-mark in the in-page SVG sprite.
-->
<svg xmlns="http://www.w3.org/2000/svg" viewBox="0 0 64 64">
  <path fill="#000" d="M32 58c-1 0-1.6-.7-1.6-1.6V44.8c-4.8-.5-8.6-2.2-11.4-5.2-3.2-3.4-4.8-8-4.8-13.9 0-2.4.3-4.5 1-6.3.7-1.8 1.6-3.3 2.8-4.5 1.2-1.2 2.5-2 3.9-2.5 1.5-.5 2.9-.7 4.3-.7 1.2 0 2.4.2 3.5.5 1.1.3 2 .8 2.8 1.5.6-.6 1.4-1 2.2-1.3.8-.3 1.8-.5 2.9-.5 1.5 0 2.9.2 4.3.7 1.5.5 2.7 1.3 3.9 2.5 1.2 1.2 2.1 2.7 2.8 4.5.7 1.8 1 3.9 1 6.3 0 5.9-1.6 10.5-4.8 13.9-2.8 3-6.6 4.7-11.4 5.2v11.6c0 .9-.6 1.6-1.4 1.6zm0-16.8c3.4 0 6.3-.8 8.7-2.3 2.4-1.5 4.2-3.7 5.5-6.4 1.2-2.7 1.8-5.7 1.8-9 0-1.9-.2-3.4-.7-4.8-.4-1.3-1-2.4-1.8-3.2-.8-.8-1.7-1.4-2.7-1.7-1-.3-2.1-.5-3.3-.5-1 0-2 .2-2.8.5-.9.3-1.6.7-2.1 1.2-.6.5-1 1.1-1.3 1.7-.3.6-.4 1.2-.4 1.8 0 .6.1 1.1.3 1.6.2.5.4 1 .8 1.5.3.4.3.8.1 1.1-.2.3-.5.5-.9.5h-2c-.4 0-.7-.1-1-.3-.2-.3-.3-.6-.3-1 0-.2.1-.5.2-.8.1-.3.3-.7.5-1.1-.5-.5-1.1-.9-1.9-1.2-.8-.3-1.7-.5-2.7-.5-1.2 0-2.3.2-3.3.5-1 .3-1.9.9-2.7 1.7-.8.8-1.4 1.9-1.8 3.2-.5 1.3-.7 2.9-.7 4.8 0 3.3.6 6.3 1.8 9 1.3 2.7 3.1 4.9 5.5 6.4 2.4 1.5 5.3 2.3 8.7 2.3z"/>
</svg>
